<?xml version="1.0" encoding="UTF-8" standalone="no"?>
<svg
   width="480"
   height="480"
   viewBox="0 0 480 480"
   fill="none"
   stroke="currentColor"
   stroke-width="2"
   stroke-linecap="round"
   stroke-linejoin="round"
   class="lucide lucide-receipt-text-icon lucide-receipt-text"
   version="1.1"
   id="svg4"
   xmlns="http://www.w3.org/2000/svg"
   xmlns:svg="http://www.w3.org/2000/svg">
  <defs
     id="defs4" />
  <path
     d="M 260,320 H 160"
     id="path1"
     style="stroke-width:40" />
  <path
     d="M 280,160 H 160"
     id="path2"
     style="stroke-width:40" />
  <path
     d="M 320,240 H 160"
     id="path3"
     style="stroke-width:40" />
  <path
     d="m 80,60 a 20,20 0 0 1 20,-20 26,26 0 0 1 14,4 l 18.66,12 a 26,26 0 0 0 28,0 l 18.68,-12 a 26,26 0 0 1 28,0 L 226,56 a 26,26 0 0 0 28,0 l 18.66,-12 a 26,26 0 0 1 28,0 l 18.68,12 a 26,26 0 0 0 28,0 L 366,44 a 26,26 0 0 1 14,-4 20,20 0 0 1 20,20 v 360 a 20,20 0 0 1 -20,20 26,26 0 0 1 -14,-4 l -18.66,-12 a 26,26 0 0 0 -28,0 l -18.68,12 a 26,26 0 0 1 -28,0 L 254,424 a 26,26 0 0 0 -28,0 l -18.66,12 a 26,26 0 0 1 -28,0 l -18.68,-12 a 26,26 0 0 0 -28,0 L 114,436 a 26,26 0 0 1 -14,4 20,20 0 0 1 -20,-20 z"
     id="path4"
     style="stroke-width:40" />
</svg>
